<?xml version="1.0" standalone="no"?>
<!DOCTYPE svg PUBLIC "-//W3C//DTD SVG 20010904//EN"
 "http://www.w3.org/TR/2001/REC-SVG-20010904/DTD/svg10.dtd">
<svg version="1.0" xmlns="http://www.w3.org/2000/svg"
 width="76.000000pt" height="76.000000pt" viewBox="0 0 76.000000 76.000000"
 preserveAspectRatio="xMidYMid meet">
<metadata>
Created by potrace 1.14, written by Peter Selinger 2001-2017
</metadata>
<g transform="translate(0.000000,76.000000) scale(0.100000,-0.100000)"
fill="#000000" stroke="none">
<path d="M225 708 c-14 -30 -25 -72 -25 -95 l0 -43 -40 0 c-36 0 -150 -35
-150 -46 0 -9 43 -89 61 -116 l19 -26 -41 -60 c-24 -34 -39 -67 -36 -75 7 -20
108 -57 152 -57 34 0 35 -1 35 -37 0 -46 15 -102 33 -127 17 -23 48 -17 99 18
29 19 45 23 77 19 22 -3 48 -2 58 2 10 4 28 7 41 6 14 -2 22 3 22 12 0 8 6 15
13 14 54 -2 64 5 125 84 l64 81 5 92 c3 50 9 93 14 94 5 2 -8 25 -29 50 -21
26 -49 66 -61 88 -18 32 -36 47 -80 67 -80 36 -144 49 -176 37 -22 -8 -32 -6
-58 14 -18 13 -47 31 -65 40 l-33 17 -24 -53z m228 -35 c-7 -2 -19 -2 -25 0
-7 3 -2 5 12 5 14 0 19 -2 13 -5z m20 -22 l44 4 -12 -34 c-8 -24 -18 -35 -33
-36 -12 -1 -20 0 -18 3 3 2 -4 14 -15 26 -12 11 -26 30 -31 41 -10 18 -9 19 5
6 10 -8 33 -12 60 -10z m161 -90 c5 -7 -114 5 -120 12 -2 2 2 19 8 40 l11 36
49 -40 c26 -23 50 -44 52 -48z m0 32 c8 -19 2 -16 -25 13 -23 25 -23 26 -2 13
13 -7 25 -19 27 -26z m-154 -27 c0 -3 -4 -8 -10 -11 -5 -3 -10 -1 -10 4 0 6 5
11 10 11 6 0 10 -2 10 -4z m177 -30 c1 -1 -8 -34 -20 -72 l-23 -71 -51 78 -51
78 71 -6 c40 -3 73 -6 74 -7z m-104 -80 c26 -39 45 -70 44 -71 -1 0 -34 1 -73
3 l-71 4 8 41 c9 58 30 110 39 100 4 -4 28 -39 53 -77z m167 -81 c0 -1 -16 1
-35 3 -20 2 -35 0 -35 -6 0 -6 15 -12 33 -14 l34 -3 -28 -59 -28 -58 -11 43
c-19 71 -19 107 3 165 l20 56 24 -64 c12 -35 23 -63 23 -63z m-1 75 c0 -10 -3
-8 -9 5 -12 27 -12 43 0 25 5 -8 9 -22 9 -30z m-119 -92 c0 -5 -3 -8 -7 -9 -5
0 -30 -29 -58 -64 -27 -35 -53 -64 -57 -65 -5 0 -8 17 -8 38 0 20 -3 54 -6 74
l-7 38 72 -3 c39 -1 71 -5 71 -9z m45 -138 c4 -6 -21 -10 -69 -10 -90 0 -102
-18 -15 -22 l60 -3 -49 -37 c-27 -21 -51 -38 -54 -38 -3 0 -11 20 -18 45 -11
38 -10 48 2 63 8 9 36 43 63 75 l49 59 12 -61 c7 -33 16 -65 19 -71z m57 38
c-8 -8 -9 -4 -5 13 4 13 8 18 11 10 2 -7 -1 -18 -6 -23z m-213 -152 c1 -15 -2
-16 -14 -6 -8 7 -26 10 -39 8 l-25 -5 25 36 c13 20 24 42 25 51 1 19 27 -58
28 -84z m129 42 c-8 -11 -25 -25 -39 -30 -20 -7 -18 -4 11 21 42 36 47 38 28
9z m-176 -69 c-15 -6 -30 -5 -40 1 -13 7 -8 9 23 9 35 0 37 -1 17 -10z"/>
</g>
</svg>
